# xmcd
#
# Track frame offsets:
#	150
#	16236
#	32052
#	47911
#	60586
#	73449
#	90343
#	103692
#	118131
#	135858
#	152925
#	168435
#
# Disc length: 2524 seconds
#
# Revision: 0
# Processed by: cddbd v1.5.1PL2 Copyright (c) Steve Scherf et al.
# Submitted via: dBpowerAMP V4.0
#
DISCID=9e09da0c
DTITLE=Sure Cha Cha Caa - vol 6
DYEAR=2003
DGENRE=Country
TTITLE0=Ruk ter thao chang
TTITLE1=Tah mong tah
TTITLE2=Tah jao choo
TTITLE3=Duen dara
TTITLE4=Duen pranee
TTITLE5=Poo yai Lee
TTITLE6=Khon dunk luem lung kwai
TTITLE7=Ta Pui chom-pae
TTITLE8=Wieng jun Wieng jai
TTITLE9=Koi ai klub fung khong
TTITLE10=Muen kaaw koi kiew
TTITLE11=Sun-sanee nee chum - Tarm ha Sun-sanee ( female - male)
EXTD=thai album
EXTT0=
EXTT1=
EXTT2=
EXTT3=
EXTT4=
EXTT5=
EXTT6=
EXTT7=
EXTT8=
EXTT9=
EXTT10=
EXTT11=
PLAYORDER=
